# xmcd
#
# Track frame offsets:
#  150
#  12430
#  40710
#  70532
#  96912
#  117585
#  140600
#  159410
#  178782
#  195415
#  211235
#  227595
#  249460
#  273637
#  290055
#  307222
#
# Disc length: 4320 seconds
#
# Revision: 0
# Processed by: cddbd v1.5.1PL2 Copyright (c) Steve Scherf et al.
# Submitted via: Collectorz.com_Music_Collector 6.10
#
DISCID=eb10de10
DTITLE=Various Artist - Mad About Music - Blues
DYEAR=1993
DGENRE=PolyGram
TTITLE0=Randy Weston/Melba Liston - Blue Mood
TTITLE1=Big Daddy Kinsey - I Am The Blues
TTITLE2=Joe Louis Walker - Blues Survivor
TTITLE3=Junior Wells - Oh, Pretty Woman
TTITLE4=Buddy Scott - Mother Fur Ya
TTITLE5=Lucky Peterson - Spankin' Leroy
TTITLE6=Randy Weston/Melba Liston - Harvard Blues
TTITLE7=Junior Wells - Messin' With The Kid
TTITLE8=Buddy Scott - Today I Started Loving You Again
TTITLE9=Big Daddy Kinsey - The Queen Without A King
TTITLE10=Robert Cray Band - You're Gonna Need Me
TTITLE11=Johnny Copeland - Promised Myself
TTITLE12=Joe Louis Walker - Rainy Nights
TTITLE13=Lightnin' Hopkins - Just Out Of Louisiana
TTITLE14=Lucky Peterson - Don't Cloud Up On Me
TTITLE15=Billie Holiday - Lady Sings The Blues
EXTD=
EXTT0=
EXTT1=
EXTT2=
EXTT3=
EXTT4=
EXTT5=
EXTT6=
EXTT7=
EXTT8=
EXTT9=
EXTT10=
EXTT11=
EXTT12=
EXTT13=
EXTT14=
EXTT15=
PLAYORDER=
